<!DOCTYPE svg PUBLIC "-//W3C//DTD SVG 20010904//EN" "http://www.w3.org/TR/2001/REC-SVG-20010904/DTD/svg10.dtd">
<svg version="1.0" xmlns="http://www.w3.org/2000/svg" width="1024px" height="1024px" viewBox="0 0 10240 10240" preserveAspectRatio="xMidYMid meet">
<g id="layer101" fill="#ff95b3" stroke="none">
 <path d="M0 5120 l0 -5120 5120 0 5120 0 0 5120 0 5120 -5120 0 -5120 0 0 -5120z"/>
 </g>
<g id="layer102" fill="#ffc5d6" stroke="none">
 <path d="M0 5120 l0 -5120 5120 0 5120 0 0 5120 0 5120 -742 0 -743 0 -1870 -3240 c-1028 -1782 -1873 -3240 -1876 -3240 -4 0 -9 6 -12 13 -4 10 1551 6363 1579 6450 5 16 -156 17 -3285 17 l-3291 0 0 -5120z"/>
 </g>
<g id="layer103" fill="#fffbfd" stroke="none">
 <path d="M1272 10232 c2 -5 838 -1454 1858 -3221 1389 -2406 1857 -3207 1862 -3194 7 15 1559 6319 1575 6396 l5 27 -2652 0 c-1458 0 -2650 -4 -2648 -8z"/>
 </g>

</svg>