<!DOCTYPE svg PUBLIC "-//W3C//DTD SVG 20010904//EN" "http://www.w3.org/TR/2001/REC-SVG-20010904/DTD/svg10.dtd">
<svg version="1.0" xmlns="http://www.w3.org/2000/svg" width="1024px" height="1024px" viewBox="0 0 10240 10240" preserveAspectRatio="xMidYMid meet">
<g id="layer101" fill="#47b9dd" stroke="none">
 <path d="M0 5120 l0 -5120 5120 0 5120 0 0 5120 0 5120 -5120 0 -5120 0 0 -5120z"/>
 </g>
<g id="layer102" fill="#94d9ed" stroke="none">
 <path d="M0 5120 l0 -5120 5120 0 5120 0 0 5120 0 5120 -742 0 -743 0 -1865 -3231 c-1026 -1777 -1868 -3236 -1872 -3242 -12 -18 -30 13 -23 38 3 11 358 1458 790 3215 432 1757 788 3201 790 3208 3 9 -658 12 -3285 12 l-3290 0 0 -5120z"/>
 </g>
<g id="layer103" fill="#f9fdff" stroke="none">
 <path d="M1272 10232 c18 -47 3714 -6430 3719 -6424 8 8 1579 6392 1579 6417 0 13 -272 15 -2651 15 -1458 0 -2649 -4 -2647 -8z"/>
 </g>

</svg>